PathFileType	4	(X/Y/Z)	/Users/niels/Desktop/University/Third Semester/Perception and Action/Exam/Gymnastics Motion Tracking/Code for Gym Tracking/Analyzed Data/Webcam_Backflip/id2_2_baseline_Sports2D/id2_2_baseline_Sports2D_px_person00.trc
DataRate	CameraRate	NumFrames	NumMarkers	Units	OrigDataRate	OrigDataStartFrame	OrigNumFrames
29.87551867219917	29.87551867219917	12	22	m	29.87551867219917	30	241
Frame#	Time	Hip			RHip			RKnee			RAnkle			RBigToe			RSmallToe			RHeel			LHip			LKnee			LAnkle			LBigToe			LSmallToe			LHeel			Neck			Head			Nose			RShoulder			RElbow			RWrist			LShoulder			LElbow			LWrist		
		X1	Y1	Z1	X2	Y2	Z2	X3	Y3	Z3	X4	Y4	Z4	X5	Y5	Z5	X6	Y6	Z6	X7	Y7	Z7	X8	Y8	Z8	X9	Y9	Z9	X10	Y10	Z10	X11	Y11	Z11	X12	Y12	Z12	X13	Y13	Z13	X14	Y14	Z14	X15	Y15	Z15	X16	Y16	Z16	X17	Y17	Z17	X18	Y18	Z18	X19	Y19	Z19	X20	Y20	Z20	X21	Y21	Z21	X22	Y22	Z22
30	1.0041666666666667	0.9345360274253365	-0.5616413603943464	0.0	0.9346726284127683	-0.5614597459112064	0.0	0.9538972563524573	-0.6748025313554055	0.0	0.9244150143925419	-0.7914612003799073	0.0	0.9556444451479341	-0.8094174464421114	0.0	0.9451331013411388	-0.8141670407240128	0.0	0.9122988234831932	-0.8076074370253943	0.0	0.9378602924810554	-0.559973763015422	0.0	0.9528632982688932	-0.6746049705420086	0.0	0.9325332899271991	-0.7820730294341555	0.0	0.9716176374224468	-0.8005340592525283	0.0	0.9675470095134362	-0.7960040474541346	0.0	0.9168395995937533	-0.7951031075257146	0.0	0.9423014523553401	-0.4039390933115422	0.0	0.9731377953353454	-0.3257708976764029	0.0	0.9713439121450927	-0.368663359921082	0.0	0.9332739771570041	-0.4086768197395858	0.0	0.9473770073841141	-0.3236516900896319	0.0	0.9642278272147164	-0.2578087854057147	0.0	0.938269584514633	-0.4102613633199822	0.0	0.956441355430584	-0.3310886466016003	0.0	0.9677436459911755	-0.2679408490558895	0.0
31	1.037638888888889	0.9352470662414168	-0.5622969475199645	0.0	0.9339460792069845	-0.5618357289925764	0.0	0.9505711740309088	-0.6768662995013689	0.0	0.9234938086025375	-0.7943988989934869	0.0	0.9563167486963129	-0.8122576751265096	0.0	0.9447981422513766	-0.8169584557022339	0.0	0.9113858030096362	-0.8108791910523702	0.0	0.9395667364311475	-0.5605844899712266	0.0	0.9538872665593051	-0.6758818606352959	0.0	0.9340644162645072	-0.7839580901446375	0.0	0.9727549651924072	-0.8010995231152235	0.0	0.9695836607398832	-0.7962408332253984	0.0	0.9190399254809829	-0.7976490544211994	0.0	0.9420944451371245	-0.4046021806645608	0.0	0.9706100058732259	-0.3262662261539569	0.0	0.970484549089223	-0.36909438277461115	0.0	0.9335392085669708	-0.40999162343361445	0.0	0.9478470330994035	-0.3236700842576379	0.0	0.963830478112614	-0.25827984693147094	0.0	0.9377832467724031	-0.4110268658426686	0.0	0.9561605737316801	-0.3312179208588882	0.0	0.9667744340695799	-0.2686917809027374	0.0
32	1.0711111111111111	0.9357642616008742	-0.5633580456961812	0.0	0.9331722912030973	-0.5625479632776024	0.0	0.9476721900921328	-0.6788106254538535	0.0	0.9225101311599023	-0.7972522015699662	0.0	0.9572936856067844	-0.8148302262723985	0.0	0.944779250814121	-0.8195594679601288	0.0	0.910502143942149	-0.8139731051429283	0.0	0.9408842904426794	-0.5616790851644113	0.0	0.9546927181134686	-0.6772487716920395	0.0	0.9348524391947881	-0.7860182338373181	0.0	0.9733885390097605	-0.80222583018964	0.0	0.9707377791925105	-0.7971693801910454	0.0	0.9205675365915458	-0.8003504991586443	0.0	0.9420413033453251	-0.40573252396632314	0.0	0.9683496079521635	-0.3274721594172453	0.0	0.9698453521294748	-0.37011902379536005	0.0	0.9337674942275634	-0.41168920376262386	0.0	0.9480079875075968	-0.3247972164653733	0.0	0.9631122798948699	-0.2595845016805814	0.0	0.9377494189213669	-0.4126876192965578	0.0	0.9556551869361302	-0.33233631545541675	0.0	0.9654384519653317	-0.27077894999701035	0.0
33	1.1045833333333333	0.9360606984607941	-0.5647761595001414	0.0	0.9325452405737582	-0.5636204624817125	0.0	0.9455264998552939	-0.6805161100754015	0.0	0.9216083561888525	-0.7996834346479029	0.0	0.9582290767293445	-0.8169638542584403	0.0	0.9450211049924127	-0.8218027626250506	0.0	0.9098016864283329	-0.8166276775085601	0.0	0.941769412878961	-0.5631336272256862	0.0	0.9551794843849856	-0.6786795837015119	0.0	0.9349047366214919	-0.7880985734466317	0.0	0.9735824269824453	-0.8038591702954161	0.0	0.9710340469629334	-0.7987130600009414	0.0	0.9211328276612527	-0.8029418014179993	0.0	0.942096576456533	-0.4073106898001872	0.0	0.9667860631729877	-0.3292413542395574	0.0	0.9694404204543797	-0.37169663351890536	0.0	0.9339827602093195	-0.41365095676726676	0.0	0.947872748881895	-0.3268489380187025	0.0	0.962290919670506	-0.26150970662955214	0.0	0.9380414190288789	-0.41501439583308547	0.0	0.9549013713641333	-0.33426991465167355	0.0	0.9639842507606537	-0.2736424449273606	0.0
34	1.1380555555555556	0.9361815649784729	-0.5663127610005096	0.0	0.9322702422796924	-0.5649141809869557	0.0	0.9444263837901642	-0.6819121566025907	0.0	0.9209812459221043	-0.8014720122608058	0.0	0.9588267056637693	-0.8185798482226947	0.0	0.9454104874285632	-0.8236044057196995	0.0	0.9094690349039878	-0.8187095942289957	0.0	0.942221587635937	-0.5646988532087074	0.0	0.9552258187608552	-0.6800990292658379	0.0	0.9344375626795874	-0.7900464992469939	0.0	0.9734900885208684	-0.8057740274457907	0.0	0.9706979831198829	-0.8006505969919716	0.0	0.9207443885519475	-0.8052552308789152	0.0	0.9422371288637543	-0.4091823344805778	0.0	0.9661633934825212	-0.3312386595582429	0.0	0.9692221787918255	-0.37363641630381944	0.0	0.9342218865546298	-0.4156753626959145	0.0	0.9475462250241093	-0.32929227709472375	0.0	0.9616070128564594	-0.26348795972980876	0.0	0.9384837373681211	-0.41759914087497246	0.0	0.9540012017529568	-0.33660899095768027	0.0	0.9626673122490009	-0.276390779543237	0.0
35	1.1715277777777777	0.9362379615951867	-0.5677138928370289	0.0	0.9324747443528375	-0.5662148970652013	0.0	0.9444788396618221	-0.6829837944103756	0.0	0.920805922045295	-0.8025358446660424	0.0	0.9590315274301152	-0.8196629149990614	0.0	0.9458870977140781	-0.8249625505198658	0.0	0.9096655101340405	-0.8201899906889719	0.0	0.9423167262011791	-0.56612282175261	0.0	0.9548274894500808	-0.6814150195901265	0.0	0.9337587463290176	-0.7917414870798513	0.0	0.973291570156771	-0.8077131176138337	0.0	0.9700684262757383	-0.8027246802380323	0.0	0.9197029670604353	-0.8072099084035522	0.0	0.9424357219233446	-0.4111558207813798	0.0	0.9664778817349493	-0.33310452510241684	0.0	0.9691183169811015	-0.37569424215871833	0.0	0.9344969816130962	-0.41755911863444045	0.0	0.9471295307963732	-0.3316073203860901	0.0	0.961200115069795	-0.26500032282524444	0.0	0.938935661358463	-0.4200288426769373	0.0	0.953127509920726	-0.33889569913288975	0.0	0.9616903223083565	-0.27832272687854903	0.0
36	1.205	0.9363966569517678	-0.5688606613802744	0.0	0.9331500414633881	-0.5673534056122768	0.0	0.9454658835578258	-0.6837883578086997	0.0	0.9211483163631752	-0.8029331271062712	0.0	0.9590009543986111	-0.8202679575942121	0.0	0.9464029836086503	-0.8259082079261606	0.0	0.9103806796294192	-0.8210933645765778	0.0	0.9422353672159897	-0.5672496576701398	0.0	0.9541610462589603	-0.6825608040762522	0.0	0.933135113496622	-0.7931159909299501	0.0	0.9731531839999216	-0.8094758240782277	0.0	0.9694929884646047	-0.804702221785314	0.0	0.9184759338671086	-0.8087448805225267	0.0	0.9426377394385863	-0.4130085634594964	0.0	0.9674304030456586	-0.3345764034024096	0.0	0.969058289665285	-0.37758730665837736	0.0	0.9347957368620874	-0.4191484144354213	0.0	0.9467457103287833	-0.33343622855050425	0.0	0.961081340300666	-0.2658629200160379	0.0	0.9392933493172815	-0.42197261165913896	0.0	0.95246072499022	-0.3407182916556608	0.0	0.9611895479170941	-0.2792357235807898	0.0
37	1.2384722222222222	0.9368044444944739	-0.5697404670266132	0.0	0.9341801303063421	-0.5682450135562579	0.0	0.9469219249145818	-0.684405487787399	0.0	0.9219105033950904	-0.8028203430783384	0.0	0.9588936603543823	-0.820502385413817	0.0	0.9468406659930051	-0.8264658337833195	0.0	0.9114110916033905	-0.8214357033556258	0.0	0.9421804595004625	-0.5680361345733743	0.0	0.9534529299303243	-0.6835052585261654	0.0	0.9326980980961962	-0.7941031174336736	0.0	0.9731596848750098	-0.8109082042650199	0.0	0.969180434857467	-0.8063653581556997	0.0	0.9175066253340585	-0.8097707295533656	0.0	0.9427976566114593	-0.41442014798415744	0.0	0.96853972275643	-0.3354711965011568	0.0	0.9690016006510616	-0.3789785178577612	0.0	0.9350983719711038	-0.4203065162745165	0.0	0.9465540296425586	-0.33454108679887257	0.0	0.9611826801589949	-0.2661783471300875	0.0	0.9394617821409412	-0.42318519270834337	0.0	0.952141497755923	-0.34179669162508974	0.0	0.961211672981134	-0.27937795075295113	0.0
38	1.2719444444444445	0.937501777175616	-0.5703172021291679	0.0	0.9353954978430121	-0.5688136707064397	0.0	0.9483743971440316	-0.6848341379638382	0.0	0.922869895413489	-0.8023433393285452	0.0	0.9587501539024381	-0.8204575754386757	0.0	0.9470744838194228	-0.8266490352965009	0.0	0.9125034682456145	-0.8212042353532187	0.0	0.942259899975017	-0.5684742077373884	0.0	0.9528262030279729	-0.6842152305284498	0.0	0.9324265891321314	-0.7946050605124283	0.0	0.9732460495647587	-0.8118832145979482	0.0	0.9691052197369773	-0.8075281063641843	0.0	0.9169719829404877	-0.8101840910465143	0.0	0.9429191572379486	-0.4150645640920049	0.0	0.9694410533417409	-0.3356791787349073	0.0	0.9689589642161147	-0.3796030722502747	0.0	0.9353736760204149	-0.4208982319944779	0.0	0.9466441361415148	-0.33483233551249825	0.0	0.9614126290564872	-0.26614438796212125	0.0	0.9393943552267613	-0.42355500185894945	0.0	0.9522175771367091	-0.34210991018045706	0.0	0.961664427370685	-0.2791914652383368	0.0
39	1.3054166666666667	0.9384029627390044	-0.5704800883519475	0.0	0.9366010622300951	-0.5689188755827446	0.0	0.9495325195770561	-0.684942544421065	0.0	0.9237818786400003	-0.8015451994225136	0.0	0.9585647795950454	-0.8201305914974201	0.0	0.9470764613635186	-0.8264250714682566	0.0	0.9134585186380293	-0.8203853553148476	0.0	0.9424729943542776	-0.5685072536436899	0.0	0.952331849085926	-0.6845736614618494	0.0	0.9322582966786466	-0.7945064804310278	0.0	0.9732592393703984	-0.812261957242671	0.0	0.9690987057648259	-0.8080314606875528	0.0	0.916737820634819	-0.809898388896857	0.0	0.9430359863879016	-0.41480951461240806	0.0	0.9700808068723202	-0.3352236136510719	0.0	0.9689886588938903	-0.37941808463554494	0.0	0.9355840673820816	-0.4208317755745681	0.0	0.946978900688873	-0.33441261021150664	0.0	0.9617029907049214	-0.26590762140968743	0.0	0.9391693858261949	-0.42313430076018316	0.0	0.9526129626936399	-0.3418457436901916	0.0	0.9623310503116211	-0.27898965109595913	0.0
40	1.338888888888889	0.9393396750233932	-0.5700965409152986	0.0	0.9376307096997013	-0.5684124037225176	0.0	0.9503319901930571	-0.6845522059772133	0.0	0.9244602888008717	-0.8003886610609363	0.0	0.9583315640029	-0.8194214834178847	0.0	0.9468971925674501	-0.8256979194943804	0.0	0.9141370781568602	-0.8189957841715709	0.0	0.942785713979993	-0.5680327997732112	0.0	0.9520513737676629	-0.6843894037824103	0.0	0.9322088621068746	-0.7937006549003003	0.0	0.9731163314777982	-0.8118623129389987	0.0	0.969037046662947	-0.8077037377190854	0.0	0.916623141939933	-0.8088601646056285	0.0	0.9431839294891687	-0.41375467936109606	0.0	0.970629019403976	-0.3342438764160964	0.0	0.9691727059555509	-0.3785656876070132	0.0	0.9357062887106058	-0.42007976437067435	0.0	0.9474479569301907	-0.33349157635367166	0.0	0.9620176665222416	-0.26548341750596727	0.0	0.938968008559223	-0.4220705134494774	0.0	0.9531642760973038	-0.34118825106238376	0.0	0.9629922905290496	-0.2787737765744951	0.0
41	1.3723611111111111	0.940138924976194	-0.5690883554398602	0.0	0.9384173462825485	-0.56724875278016	0.0	0.9508911578590816	-0.6835759663559564	0.0	0.924805379767278	-0.7988345453703892	0.0	0.9579782632868403	-0.8182079998463658	0.0	0.9465826671852716	-0.8243658648461829	0.0	0.914450764861876	-0.8170944010463898	0.0	0.9431560869208587	-0.5669752399163228	0.0	0.9520761175477394	-0.6835387445561517	0.0	0.9323417572180914	-0.7921421873659343	0.0	0.9728764005221978	-0.8105311767103054	0.0	0.9689192241053233	-0.8064089863525566	0.0	0.9166045628250036	-0.8070636671126494	0.0	0.9434141975241087	-0.41211779966506507	0.0	0.9713015614911928	-0.33289580187412826	0.0	0.9695771399847052	-0.3772351648007172	0.0	0.935754972641486	-0.418683985228688	0.0	0.9479025856868154	-0.3322501235709675	0.0	0.9623224392085996	-0.2647526989115198	0.0	0.9389479859772724	-0.4205423429753125	0.0	0.9536974430452494	-0.34020500905691314	0.0	0.9635320916241773	-0.2783208466426199	0.0
